<svg xmlns="http://www.w3.org/2000/svg" width="493" height="312" viewBox="0 0 493 312">
  <defs>
    <linearGradient id="panel" x2="0.8" y2="1">
      <stop stop-color="#0b2235" />
      <stop offset="1" stop-color="#143852" />
    </linearGradient>
    <radialGradient id="glow">
      <stop stop-color="#20618a" stop-opacity="0.6" />
      <stop offset="1" stop-color="#20618a" stop-opacity="0" />
    </radialGradient>
    <clipPath id="panelClip">
      <rect width="164" height="312" />
    </clipPath>
  </defs>
  <rect width="493" height="312" fill="#ffffff" />
  <g clip-path="url(#panelClip)">
    <rect width="164" height="312" fill="url(#panel)" />
    <ellipse cx="82" cy="139" rx="110" ry="130" fill="url(#glow)" />
    <g fill="none" stroke="#5ce1cc" stroke-width="1" opacity="0.22">
      <path d="M0 27h35l22 22h67l22-22h18M0 45h25l22 22M164 45h-25l-22 22" />
      <path d="M0 218h34l21-21M164 218h-34l-21-21M0 236h48l16-16M164 236h-48l-16-16" />
      <path d="M82 205v31l-18 18v58M100 249v63M45 268v44M119 268v44" />
    </g>
    <g fill="#5ce1cc" opacity="0.48">
      <circle cx="35" cy="27" r="2.5" />
      <circle cx="146" cy="27" r="2.5" />
      <circle cx="34" cy="218" r="2.5" />
      <circle cx="130" cy="218" r="2.5" />
      <circle cx="82" cy="236" r="2.5" />
    </g>
    <image href="Cipherazzi.svg" x="8" y="64" width="148" height="148" />
    <rect x="16" y="264" width="132" height="32" rx="4" fill="#143852" />
    <text x="82" y="285" text-anchor="middle" font-family="Segoe UI, Tahoma, sans-serif"
          font-size="17" font-weight="600" fill="#ffffff">Cipherazzi</text>
  </g>
  <rect x="163" width="1" height="312" fill="#5ce1cc" opacity="0.65" />
</svg>
